<?xml version="1.0" encoding="UTF-8"?>
<!DOCTYPE svg PUBLIC "-//W3C//DTD SVG 1.1//EN" "http://www.w3.org/Graphics/SVG/1.1/DTD/svg11.dtd">
<svg xmlns="http://www.w3.org/2000/svg" version="1.1" width="500px" height="500px" style="shape-rendering:geometricPrecision; text-rendering:geometricPrecision; image-rendering:optimizeQuality; fill-rule:evenodd; clip-rule:evenodd" xmlns:xlink="http://www.w3.org/1999/xlink">
<g><path style="opacity:1" fill="#85dde9" d="M -0.5,-0.5 C 166.167,-0.5 332.833,-0.5 499.5,-0.5C 499.5,166.167 499.5,332.833 499.5,499.5C 332.833,499.5 166.167,499.5 -0.5,499.5C -0.5,332.833 -0.5,166.167 -0.5,-0.5 Z"/></g>
<g><path style="opacity:1" fill="#2b1f15" d="M 296.5,179.5 C 300.459,208.093 288.792,226.926 261.5,236C 238.166,241.225 219.333,234.392 205,215.5C 197.758,201.662 196.591,187.328 201.5,172.5C 217.529,146.321 240.196,138.488 269.5,149C 283.385,155.04 292.385,165.206 296.5,179.5 Z"/></g>
<g><path style="opacity:1" fill="#fefefe" d="M 201.5,172.5 C 196.591,187.328 197.758,201.662 205,215.5C 219.333,234.392 238.166,241.225 261.5,236C 288.792,226.926 300.459,208.093 296.5,179.5C 336.631,176.141 362.131,193.808 373,232.5C 376.824,251.012 376.158,269.346 371,287.5C 357.019,322.913 331.185,337.08 293.5,330C 276.879,324.534 263.545,314.701 253.5,300.5C 248.924,307.306 244.09,313.972 239,320.5C 221.598,337.191 200.765,344.358 176.5,342C 155.513,337.921 140.013,326.421 130,307.5C 118.922,284.286 115.589,259.953 120,234.5C 123.6,212.787 133.766,194.954 150.5,181C 166.229,170.823 183.229,167.99 201.5,172.5 Z"/></g>
</svg>
