<?xml version="1.0" encoding="UTF-8"?>
<!DOCTYPE svg PUBLIC "-//W3C//DTD SVG 1.1//EN" "http://www.w3.org/Graphics/SVG/1.1/DTD/svg11.dtd">
<svg xmlns="http://www.w3.org/2000/svg" version="1.1" width="500px" height="500px" style="shape-rendering:geometricPrecision; text-rendering:geometricPrecision; image-rendering:optimizeQuality; fill-rule:evenodd; clip-rule:evenodd" xmlns:xlink="http://www.w3.org/1999/xlink">
<g><path style="opacity:1" fill="#85dde9" d="M -0.5,-0.5 C 166.167,-0.5 332.833,-0.5 499.5,-0.5C 499.5,166.167 499.5,332.833 499.5,499.5C 332.833,499.5 166.167,499.5 -0.5,499.5C -0.5,332.833 -0.5,166.167 -0.5,-0.5 Z"/></g>
<g><path style="opacity:1" fill="#2b1f15" d="M 296.5,179.5 C 300.459,208.093 288.792,226.926 261.5,236C 238.166,241.225 219.333,234.392 205,215.5C 197.758,201.662 196.591,187.328 201.5,172.5C 217.529,146.321 240.196,138.488 269.5,149C 283.385,155.04 292.385,165.206 296.5,179.5 Z"/></g>
<g><path style="opacity:1" fill="#fefefe" d="M 201.5,172.5 C 196.591,187.328 197.758,201.662 205,215.5C 219.333,234.392 238.166,241.225 261.5,236C 288.792,226.926 300.459,208.093 296.5,179.5C 343.766,177.589 369.933,200.256 375,247.5C 377.041,266.517 373.707,284.517 365,301.5C 351.007,323.579 330.841,333.579 304.5,331.5C 282.968,328.57 265.968,318.236 253.5,300.5C 247.93,309.777 241.264,318.277 233.5,326C 224.153,333.672 213.486,338.672 201.5,341C 200.62,342.356 200.286,343.856 200.5,345.5C 199.566,344.432 199.232,343.099 199.5,341.5C 166.6,345.801 142.767,333.134 128,303.5C 117.713,277.856 115.713,251.523 122,224.5C 127.139,207.033 136.639,192.533 150.5,181C 166.229,170.823 183.229,167.99 201.5,172.5 Z"/></g>
<g><path style="opacity:1" fill="#fe5770" d="M 304.5,331.5 C 304.946,350.106 301.112,367.773 293,384.5C 278.345,406.052 258.512,412.886 233.5,405C 216.877,395.631 206.711,381.464 203,362.5C 201.839,356.874 201.006,351.207 200.5,345.5C 200.286,343.856 200.62,342.356 201.5,341C 213.486,338.672 224.153,333.672 233.5,326C 241.264,318.277 247.93,309.777 253.5,300.5C 265.968,318.236 282.968,328.57 304.5,331.5 Z"/></g>
</svg>
